<svg version="1.1" xmlns="http://www.w3.org/2000/svg" xmlns:xlink="http://www.w3.org/1999/xlink" width="1627" height="805"><defs/><g><g><rect fill="#C0C0C0" stroke="none" x="975" y="247" width="241" height="33" transform="matrix(1 0 0 1 -230 -230)" fill-opacity="0.2"/></g><g><rect fill="#1abc9c" stroke="none" x="968" y="240" width="241" height="33" transform="matrix(1 0 0 1 -230 -230)"/></g><g><path fill="none" stroke="#000000" paint-order="fill stroke markers" d=" M 738 10 L 979 10 L 979 43 L 738 43 L 738 10 Z Z" stroke-miterlimit="10" stroke-dasharray=""/></g><g><g><path fill="none" stroke="none"/><text fill="#ffffff" stroke="none" font-family="Arial" font-size="20px" font-style="normal" font-weight="bold" text-decoration="undefined" x="1089" y="257" text-anchor="middle" dominant-baseline="central" transform="matrix(1 0 0 1 -230 -230)">Student Management</text></g></g><g><path fill="#ffffff" stroke="none" paint-order="stroke fill markers" d=" M 201.26571289062503 587.85 C 201.26571289062503 582.96227952 205.223515258625 579 210.105712890625 579 C 214.987910522625 579 218.94571289062497 582.96227952 218.94571289062497 587.85 C 218.94571289062497 592.73772048 214.987910522625 596.7 210.105712890625 596.7 C 205.223515258625 596.7 201.26571289062503 592.73772048 201.26571289062503 587.85 Z"/></g><g><path fill="none" stroke="#0008ff" paint-order="fill stroke markers" d=" M 201.26571289062503 587.85 C 201.26571289062503 582.96227952 205.223515258625 579 210.105712890625 579 C 214.987910522625 579 218.94571289062497 582.96227952 218.94571289062497 587.85 C 218.94571289062497 592.73772048 214.987910522625 596.7 210.105712890625 596.7 C 205.223515258625 596.7 201.26571289062503 592.73772048 201.26571289062503 587.85 Z" stroke-miterlimit="10" stroke-dasharray=""/></g><g><path fill="none" stroke="#0008ff" paint-order="fill stroke markers" d=" M 210.105712890625 596.7 L 210.105712890625 614.3" stroke-miterlimit="10" stroke-dasharray=""/></g><g><path fill="none" stroke="#0008ff" paint-order="fill stroke markers" d=" M 200.745712890625 603.3 L 219.465712890625 603.3" stroke-miterlimit="10" stroke-dasharray=""/></g><g><path fill="none" stroke="#0008ff" paint-order="fill stroke markers" d=" M 210.105712890625 614.3 L 197.105712890625 632" stroke-miterlimit="10" stroke-dasharray=""/></g><g><path fill="none" stroke="#0008ff" paint-order="fill stroke markers" d=" M 210.105712890625 614.3 L 223.105712890625 632" stroke-miterlimit="10" stroke-dasharray=""/></g><g><g><path fill="none" stroke="none"/><text fill="#001eff" stroke="none" font-family="Arial" font-size="13px" font-style="normal" font-weight="bold" text-decoration="undefined" x="440.605712890625" y="876.5" text-anchor="middle" dominant-baseline="central" transform="matrix(1 0 0 1 -230 -230)">Sinh viên</text></g></g><g><path fill="#ffffff" stroke="none" paint-order="stroke fill markers" d=" M 933.1663476562501 427.85 C 933.1663476562501 422.96227952000004 937.12415002425 419 942.00634765625 419 C 946.88854528825 419 950.8463476562499 422.96227952000004 950.8463476562499 427.85 C 950.8463476562499 432.73772048 946.88854528825 436.70000000000005 942.00634765625 436.70000000000005 C 937.12415002425 436.70000000000005 933.1663476562501 432.73772048 933.1663476562501 427.85 Z"/></g><g><path fill="none" stroke="#008400" paint-order="fill stroke markers" d=" M 933.1663476562501 427.85 C 933.1663476562501 422.96227952000004 937.12415002425 419 942.00634765625 419 C 946.88854528825 419 950.8463476562499 422.96227952000004 950.8463476562499 427.85 C 950.8463476562499 432.73772048 946.88854528825 436.70000000000005 942.00634765625 436.70000000000005 C 937.12415002425 436.70000000000005 933.1663476562501 432.73772048 933.1663476562501 427.85 Z" stroke-miterlimit="10" stroke-dasharray=""/></g><g><path fill="none" stroke="#008400" paint-order="fill stroke markers" d=" M 942.00634765625 436.70000000000005 L 942.00634765625 454.29999999999995" stroke-miterlimit="10" stroke-dasharray=""/></g><g><path fill="none" stroke="#008400" paint-order="fill stroke markers" d=" M 932.6463476562501 443.29999999999995 L 951.3663476562499 443.29999999999995" stroke-miterlimit="10" stroke-dasharray=""/></g><g><path fill="none" stroke="#008400" paint-order="fill stroke markers" d=" M 942.00634765625 454.29999999999995 L 929.00634765625 472" stroke-miterlimit="10" stroke-dasharray=""/></g><g><path fill="none" stroke="#008400" paint-order="fill stroke markers" d=" M 942.00634765625 454.29999999999995 L 955.00634765625 472" stroke-miterlimit="10" stroke-dasharray=""/></g><g><g><path fill="none" stroke="none"/><text fill="#008400" stroke="none" font-family="Arial" font-size="13px" font-style="normal" font-weight="bold" text-decoration="undefined" x="1172.50634765625" y="716.5" text-anchor="middle" dominant-baseline="central" transform="matrix(1 0 0 1 -230 -230)">Giảng viên</text></g></g><g><path fill="#ffffff" stroke="none" paint-order="stroke fill markers" d=" M 845.8899804687501 75.85000000000002 C 845.8899804687501 70.96227952000004 849.84778283675 67 854.72998046875 67 C 859.61217810075 67 863.5699804687499 70.96227952000004 863.5699804687499 75.85000000000002 C 863.5699804687499 80.73772048000001 859.61217810075 84.69999999999999 854.72998046875 84.69999999999999 C 849.84778283675 84.69999999999999 845.8899804687501 80.73772048000001 845.8899804687501 75.85000000000002 Z"/></g><g><path fill="none" stroke="#ff0000" paint-order="fill stroke markers" d=" M 845.8899804687501 75.85000000000002 C 845.8899804687501 70.96227952000004 849.84778283675 67 854.72998046875 67 C 859.61217810075 67 863.5699804687499 70.96227952000004 863.5699804687499 75.85000000000002 C 863.5699804687499 80.73772048000001 859.61217810075 84.69999999999999 854.72998046875 84.69999999999999 C 849.84778283675 84.69999999999999 845.8899804687501 80.73772048000001 845.8899804687501 75.85000000000002 Z" stroke-miterlimit="10" stroke-dasharray=""/></g><g><path fill="none" stroke="#ff0000" paint-order="fill stroke markers" d=" M 854.72998046875 84.69999999999999 L 854.72998046875 102.30000000000001" stroke-miterlimit="10" stroke-dasharray=""/></g><g><path fill="none" stroke="#ff0000" paint-order="fill stroke markers" d=" M 845.3699804687501 91.30000000000001 L 864.0899804687499 91.30000000000001" stroke-miterlimit="10" stroke-dasharray=""/></g><g><path fill="none" stroke="#ff0000" paint-order="fill stroke markers" d=" M 854.72998046875 102.30000000000001 L 841.72998046875 120" stroke-miterlimit="10" stroke-dasharray=""/></g><g><path fill="none" stroke="#ff0000" paint-order="fill stroke markers" d=" M 854.72998046875 102.30000000000001 L 867.72998046875 120" stroke-miterlimit="10" stroke-dasharray=""/></g><g><g><path fill="none" stroke="none"/><text fill="#ff0000" stroke="none" font-family="Arial" font-size="13px" font-style="normal" font-weight="bold" text-decoration="undefined" x="1085.22998046875" y="364.5" text-anchor="middle" dominant-baseline="central" transform="matrix(1 0 0 1 -230 -230)">ADMIN</text></g></g><g><path fill="#C0C0C0" stroke="none" paint-order="stroke fill markers" d=" M 17 293.5 C 17 273.3416048 57.07051039999999 257 106.5 257 C 155.9294896 257 196 273.3416048 196 293.5 C 196 313.6583952 155.9294896 330 106.5 330 C 57.07051039999999 330 17 313.6583952 17 293.5 Z" fill-opacity="0.2"/></g><g><path fill="#ffffff" stroke="none" paint-order="stroke fill markers" d=" M 10 286.5 C 10 266.3416048 50.07051039999999 250 99.5 250 C 148.9294896 250 189 266.3416048 189 286.5 C 189 306.6583952 148.9294896 323 99.5 323 C 50.07051039999999 323 10 306.6583952 10 286.5 Z"/></g><g><path fill="none" stroke="#ff0000" paint-order="fill stroke markers" d=" M 10 286.5 C 10 266.3416048 50.07051039999999 250 99.5 250 C 148.9294896 250 189 266.3416048 189 286.5 C 189 306.6583952 148.9294896 323 99.5 323 C 50.07051039999999 323 10 306.6583952 10 286.5 Z" stroke-miterlimit="10" stroke-dasharray=""/></g><g><g><path fill="none" stroke="none"/><text fill="#ff0000" stroke="none" font-family="Arial" font-size="13px" font-style="normal" font-weight="bold" text-decoration="undefined" x="329.5" y="517.5" text-anchor="middle" dominant-baseline="central" transform="matrix(1 0 0 1 -230 -230)">Quản lý học tập</text></g></g><g><path fill="#C0C0C0" stroke="none" paint-order="stroke fill markers" d=" M 1193 309.5 C 1193 289.3416048 1237.9953776 273 1293.5 273 C 1349.0046224 273 1394 289.3416048 1394 309.5 C 1394 329.6583952 1349.0046224 346 1293.5 346 C 1237.9953776 346 1193 329.6583952 1193 309.5 Z" fill-opacity="0.2"/></g><g><path fill="#ffffff" stroke="none" paint-order="stroke fill markers" d=" M 1186 302.5 C 1186 282.3416048 1230.9953776 266 1286.5 266 C 1342.0046224 266 1387 282.3416048 1387 302.5 C 1387 322.6583952 1342.0046224 339 1286.5 339 C 1230.9953776 339 1186 322.6583952 1186 302.5 Z"/></g><g><path fill="none" stroke="#ff0000" paint-order="fill stroke markers" d=" M 1186 302.5 C 1186 282.3416048 1230.9953776 266 1286.5 266 C 1342.0046224 266 1387 282.3416048 1387 302.5 C 1387 322.6583952 1342.0046224 339 1286.5 339 C 1230.9953776 339 1186 322.6583952 1186 302.5 Z" stroke-miterlimit="10" stroke-dasharray=""/></g><g><g><path fill="none" stroke="none"/><text fill="#ff0000" stroke="none" font-family="Arial" font-size="13px" font-style="normal" font-weight="bold" text-decoration="undefined" x="1516.5" y="533.5" text-anchor="middle" dominant-baseline="central" transform="matrix(1 0 0 1 -230 -230)">Quản lý tài chính</text></g></g><g><path fill="#C0C0C0" stroke="none" paint-order="stroke fill markers" d=" M 625 309.5 C 625 289.3416048 672.4578112 273 731 273 C 789.5421888 273 837 289.3416048 837 309.5 C 837 329.6583952 789.5421888 346 731 346 C 672.4578112 346 625 329.6583952 625 309.5 Z" fill-opacity="0.2"/></g><g><path fill="#ffffff" stroke="none" paint-order="stroke fill markers" d=" M 618 302.5 C 618 282.3416048 665.4578112 266 724 266 C 782.5421888 266 830 282.3416048 830 302.5 C 830 322.6583952 782.5421888 339 724 339 C 665.4578112 339 618 322.6583952 618 302.5 Z"/></g><g><path fill="none" stroke="#ff0000" paint-order="fill stroke markers" d=" M 618 302.5 C 618 282.3416048 665.4578112 266 724 266 C 782.5421888 266 830 282.3416048 830 302.5 C 830 322.6583952 782.5421888 339 724 339 C 665.4578112 339 618 322.6583952 618 302.5 Z" stroke-miterlimit="10" stroke-dasharray=""/></g><g><g><path fill="none" stroke="none"/><text fill="#ff0000" stroke="none" font-family="Arial" font-size="13px" font-style="normal" font-weight="bold" text-decoration="undefined" x="954" y="533.5" text-anchor="middle" dominant-baseline="central" transform="matrix(1 0 0 1 -230 -230)">Quản lý giảng viên</text></g></g><g><path fill="#C0C0C0" stroke="none" paint-order="stroke fill markers" d=" M 889 309.5 C 889 289.3416048 944.9644000000001 273 1014 273 C 1083.0356 273 1139 289.3416048 1139 309.5 C 1139 329.6583952 1083.0356 346 1014 346 C 944.9644000000001 346 889 329.6583952 889 309.5 Z" fill-opacity="0.2"/></g><g><path fill="#ffffff" stroke="none" paint-order="stroke fill markers" d=" M 882 302.5 C 882 282.3416048 937.9644000000001 266 1007 266 C 1076.0356 266 1132 282.3416048 1132 302.5 C 1132 322.6583952 1076.0356 339 1007 339 C 937.9644000000001 339 882 322.6583952 882 302.5 Z"/></g><g><path fill="none" stroke="#ff0000" paint-order="fill stroke markers" d=" M 882 302.5 C 882 282.3416048 937.9644000000001 266 1007 266 C 1076.0356 266 1132 282.3416048 1132 302.5 C 1132 322.6583952 1076.0356 339 1007 339 C 937.9644000000001 339 882 322.6583952 882 302.5 Z" stroke-miterlimit="10" stroke-dasharray=""/></g><g><g><path fill="none" stroke="none"/><text fill="#ff0000" stroke="none" font-family="Arial" font-size="13px" font-style="normal" font-weight="bold" text-decoration="undefined" x="1237" y="533.5" text-anchor="middle" dominant-baseline="central" transform="matrix(1 0 0 1 -230 -230)">Quản lý thông tin sinh viên</text></g></g><g><path fill="#C0C0C0" stroke="none" paint-order="stroke fill markers" d=" M 1457 309.5 C 1457 289.3416048 1494.3842192 273 1540.5 273 C 1586.6157808 273 1624 289.3416048 1624 309.5 C 1624 329.6583952 1586.6157808 346 1540.5 346 C 1494.3842192 346 1457 329.6583952 1457 309.5 Z" fill-opacity="0.2"/></g><g><path fill="#ffffff" stroke="none" paint-order="stroke fill markers" d=" M 1450 302.5 C 1450 282.3416048 1487.3842192 266 1533.5 266 C 1579.6157808 266 1617 282.3416048 1617 302.5 C 1617 322.6583952 1579.6157808 339 1533.5 339 C 1487.3842192 339 1450 322.6583952 1450 302.5 Z"/></g><g><path fill="none" stroke="#ff0000" paint-order="fill stroke markers" d=" M 1450 302.5 C 1450 282.3416048 1487.3842192 266 1533.5 266 C 1579.6157808 266 1617 282.3416048 1617 302.5 C 1617 322.6583952 1579.6157808 339 1533.5 339 C 1487.3842192 339 1450 322.6583952 1450 302.5 Z" stroke-miterlimit="10" stroke-dasharray=""/></g><g><g><path fill="none" stroke="none"/><text fill="#ff0000" stroke="none" font-family="Arial" font-size="13px" font-style="normal" font-weight="bold" text-decoration="undefined" x="1763.5" y="533.5" text-anchor="middle" dominant-baseline="central" transform="matrix(1 0 0 1 -230 -230)">Báo cáo thống kê</text></g></g><g><path fill="#C0C0C0" stroke="none" paint-order="stroke fill markers" d=" M 433 461.5 C 433 441.3416048 470.38421919999996 425 516.5 425 C 562.6157808 425 600 441.3416048 600 461.5 C 600 481.6583952 562.6157808 498 516.5 498 C 470.38421919999996 498 433 481.6583952 433 461.5 Z" fill-opacity="0.2"/></g><g><path fill="#ffffff" stroke="none" paint-order="stroke fill markers" d=" M 426 454.5 C 426 434.3416048 463.38421919999996 418 509.5 418 C 555.6157808 418 593 434.3416048 593 454.5 C 593 474.6583952 555.6157808 491 509.5 491 C 463.38421919999996 491 426 474.6583952 426 454.5 Z"/></g><g><path fill="none" stroke="#0008ff" paint-order="fill stroke markers" d=" M 426 454.5 C 426 434.3416048 463.38421919999996 418 509.5 418 C 555.6157808 418 593 434.3416048 593 454.5 C 593 474.6583952 555.6157808 491 509.5 491 C 463.38421919999996 491 426 474.6583952 426 454.5 Z" stroke-miterlimit="10" stroke-dasharray=""/></g><g><g><path fill="none" stroke="none"/><text fill="#001eff" stroke="none" font-family="Arial" font-size="13px" font-style="normal" font-weight="bold" text-decoration="undefined" x="739.5" y="685.5" text-anchor="middle" dominant-baseline="central" transform="matrix(1 0 0 1 -230 -230)">Đăng ký môn học</text></g></g><g><path fill="#C0C0C0" stroke="none" paint-order="stroke fill markers" d=" M 417 557.5 C 417 537.3416048 459.9806592 521 513 521 C 566.0193408 521 609 537.3416048 609 557.5 C 609 577.6583952 566.0193408 594 513 594 C 459.9806592 594 417 577.6583952 417 557.5 Z" fill-opacity="0.2"/></g><g><path fill="#ffffff" stroke="none" paint-order="stroke fill markers" d=" M 410 550.5 C 410 530.3416048 452.9806592 514 506 514 C 559.0193408 514 602 530.3416048 602 550.5 C 602 570.6583952 559.0193408 587 506 587 C 452.9806592 587 410 570.6583952 410 550.5 Z"/></g><g><path fill="none" stroke="#0008ff" paint-order="fill stroke markers" d=" M 410 550.5 C 410 530.3416048 452.9806592 514 506 514 C 559.0193408 514 602 530.3416048 602 550.5 C 602 570.6583952 559.0193408 587 506 587 C 452.9806592 587 410 570.6583952 410 550.5 Z" stroke-miterlimit="10" stroke-dasharray=""/></g><g><g><path fill="none" stroke="none"/><text fill="#001eff" stroke="none" font-family="Arial" font-size="13px" font-style="normal" font-weight="bold" text-decoration="undefined" x="736" y="781.5" text-anchor="middle" dominant-baseline="central" transform="matrix(1 0 0 1 -230 -230)">Xem kết quả học tập</text></g></g><g><path fill="#C0C0C0" stroke="none" paint-order="stroke fill markers" d=" M 449 653.5 C 449 633.3416048 477.4299152 617 512.5 617 C 547.5700848 617 576 633.3416048 576 653.5 C 576 673.6583952 547.5700848 690 512.5 690 C 477.4299152 690 449 673.6583952 449 653.5 Z" fill-opacity="0.2"/></g><g><path fill="#ffffff" stroke="none" paint-order="stroke fill markers" d=" M 442 646.5 C 442 626.3416048 470.4299152 610 505.5 610 C 540.5700848 610 569 626.3416048 569 646.5 C 569 666.6583952 540.5700848 683 505.5 683 C 470.4299152 683 442 666.6583952 442 646.5 Z"/></g><g><path fill="none" stroke="#0008ff" paint-order="fill stroke markers" d=" M 442 646.5 C 442 626.3416048 470.4299152 610 505.5 610 C 540.5700848 610 569 626.3416048 569 646.5 C 569 666.6583952 540.5700848 683 505.5 683 C 470.4299152 683 442 666.6583952 442 646.5 Z" stroke-miterlimit="10" stroke-dasharray=""/></g><g><g><path fill="none" stroke="none"/><text fill="#001eff" stroke="none" font-family="Arial" font-size="13px" font-style="normal" font-weight="bold" text-decoration="undefined" x="735.5" y="877.5" text-anchor="middle" dominant-baseline="central" transform="matrix(1 0 0 1 -230 -230)">Xem lịch học</text></g></g><g><path fill="#C0C0C0" stroke="none" paint-order="stroke fill markers" d=" M 473 305.5 C 473 283.13246560000005 497.4004784 265 527.5 265 C 557.5995216 265 582 283.13246560000005 582 305.5 C 582 327.86753439999995 557.5995216 346 527.5 346 C 497.4004784 346 473 327.86753439999995 473 305.5 Z" fill-opacity="0.2"/></g><g><path fill="#ffffff" stroke="none" paint-order="stroke fill markers" d=" M 466 298.5 C 466 276.1324656 490.4004784 258 520.5 258 C 550.5995216 258 575 276.1324656 575 298.5 C 575 320.86753439999995 550.5995216 339 520.5 339 C 490.4004784 339 466 320.86753439999995 466 298.5 Z"/></g><g><path fill="none" stroke="#ff0000" paint-order="fill stroke markers" d=" M 466 298.5 C 466 276.1324656 490.4004784 258 520.5 258 C 550.5995216 258 575 276.1324656 575 298.5 C 575 320.86753439999995 550.5995216 339 520.5 339 C 490.4004784 339 466 320.86753439999995 466 298.5 Z" stroke-miterlimit="10" stroke-dasharray=""/></g><g><g><path fill="none" stroke="none"/><text fill="#ff0000" stroke="none" font-family="Arial" font-size="13px" font-style="normal" font-weight="bold" text-decoration="undefined" x="750.5" y="529.5" text-anchor="middle" dominant-baseline="central" transform="matrix(1 0 0 1 -230 -230)">Đăng nhập</text></g></g><g><path fill="#C0C0C0" stroke="none" paint-order="stroke fill markers" d=" M 417 761.5 C 417 739.1324656 457.9659408 721 508.5 721 C 559.0340592 721 600 739.1324656 600 761.5 C 600 783.8675344 559.0340592 802 508.5 802 C 457.9659408 802 417 783.8675344 417 761.5 Z" fill-opacity="0.2"/></g><g><path fill="#ffffff" stroke="none" paint-order="stroke fill markers" d=" M 410 754.5 C 410 732.1324656 450.9659408 714 501.5 714 C 552.0340592 714 593 732.1324656 593 754.5 C 593 776.8675344 552.0340592 795 501.5 795 C 450.9659408 795 410 776.8675344 410 754.5 Z"/></g><g><path fill="none" stroke="#0008ff" paint-order="fill stroke markers" d=" M 410 754.5 C 410 732.1324656 450.9659408 714 501.5 714 C 552.0340592 714 593 732.1324656 593 754.5 C 593 776.8675344 552.0340592 795 501.5 795 C 450.9659408 795 410 776.8675344 410 754.5 Z" stroke-miterlimit="10" stroke-dasharray=""/></g><g><g><path fill="none" stroke="none"/><text fill="#001eff" stroke="none" font-family="Arial" font-size="13px" font-style="normal" font-weight="bold" text-decoration="undefined" x="731.5" y="985.5" text-anchor="middle" dominant-baseline="central" transform="matrix(1 0 0 1 -230 -230)">Thanh toán học phí</text></g></g><g><path fill="#C0C0C0" stroke="none" paint-order="stroke fill markers" d=" M 633 645.5 C 633 625.3416048 675.9806592 609 729 609 C 782.0193408 609 825 625.3416048 825 645.5 C 825 665.6583952 782.0193408 682 729 682 C 675.9806592 682 633 665.6583952 633 645.5 Z" fill-opacity="0.2"/></g><g><path fill="#ffffff" stroke="none" paint-order="stroke fill markers" d=" M 626 638.5 C 626 618.3416048 668.9806592 602 722 602 C 775.0193408 602 818 618.3416048 818 638.5 C 818 658.6583952 775.0193408 675 722 675 C 668.9806592 675 626 658.6583952 626 638.5 Z"/></g><g><path fill="none" stroke="#008400" paint-order="fill stroke markers" d=" M 626 638.5 C 626 618.3416048 668.9806592 602 722 602 C 775.0193408 602 818 618.3416048 818 638.5 C 818 658.6583952 775.0193408 675 722 675 C 668.9806592 675 626 658.6583952 626 638.5 Z" stroke-miterlimit="10" stroke-dasharray=""/></g><g><g><path fill="none" stroke="none"/><text fill="#008400" stroke="none" font-family="Arial" font-size="13px" font-style="normal" font-weight="bold" text-decoration="undefined" x="952" y="869.5" text-anchor="middle" dominant-baseline="central" transform="matrix(1 0 0 1 -230 -230)">Quản lý điểm số</text></g></g><g><path fill="#C0C0C0" stroke="none" paint-order="stroke fill markers" d=" M 1081 653 C 1081 628.6994688 1120.3989376 609 1169 609 C 1217.6010624 609 1257 628.6994688 1257 653 C 1257 677.3005312 1217.6010624 697 1169 697 C 1120.3989376 697 1081 677.3005312 1081 653 Z" fill-opacity="0.2"/></g><g><path fill="#ffffff" stroke="none" paint-order="stroke fill markers" d=" M 1074 646 C 1074 621.6994688 1113.3989376 602 1162 602 C 1210.6010624 602 1250 621.6994688 1250 646 C 1250 670.3005312 1210.6010624 690 1162 690 C 1113.3989376 690 1074 670.3005312 1074 646 Z"/></g><g><path fill="none" stroke="#008400" paint-order="fill stroke markers" d=" M 1074 646 C 1074 621.6994688 1113.3989376 602 1162 602 C 1210.6010624 602 1250 621.6994688 1250 646 C 1250 670.3005312 1210.6010624 690 1162 690 C 1113.3989376 690 1074 670.3005312 1074 646 Z" stroke-miterlimit="10" stroke-dasharray=""/></g><g><g><path fill="none" stroke="none"/><text fill="#008400" stroke="none" font-family="Arial" font-size="13px" font-style="normal" font-weight="bold" text-decoration="undefined" x="1392" y="870.5" text-anchor="middle" dominant-baseline="central" transform="matrix(1 0 0 1 -230 -230)">Xem và phân tích</text><text fill="#008400" stroke="none" font-family="Arial" font-size="13px" font-style="normal" font-weight="bold" text-decoration="undefined" x="1392" y="883.5" text-anchor="middle" dominant-baseline="central" transform="matrix(1 0 0 1 -230 -230)">kết quả học tập</text></g></g><g><path fill="#C0C0C0" stroke="none" paint-order="stroke fill markers" d=" M 857 649.5 C 857 627.1324656 897.9659408 609 948.5 609 C 999.0340592 609 1040 627.1324656 1040 649.5 C 1040 671.8675344 999.0340592 690 948.5 690 C 897.9659408 690 857 671.8675344 857 649.5 Z" fill-opacity="0.2"/></g><g><path fill="#ffffff" stroke="none" paint-order="stroke fill markers" d=" M 850 642.5 C 850 620.1324656 890.9659408 602 941.5 602 C 992.0340592 602 1033 620.1324656 1033 642.5 C 1033 664.8675344 992.0340592 683 941.5 683 C 890.9659408 683 850 664.8675344 850 642.5 Z"/></g><g><path fill="none" stroke="#008400" paint-order="fill stroke markers" d=" M 850 642.5 C 850 620.1324656 890.9659408 602 941.5 602 C 992.0340592 602 1033 620.1324656 1033 642.5 C 1033 664.8675344 992.0340592 683 941.5 683 C 890.9659408 683 850 664.8675344 850 642.5 Z" stroke-miterlimit="10" stroke-dasharray=""/></g><g><g><path fill="none" stroke="none"/><text fill="#008400" stroke="none" font-family="Arial" font-size="13px" font-style="normal" font-weight="bold" text-decoration="undefined" x="1171.5" y="873.5" text-anchor="middle" dominant-baseline="central" transform="matrix(1 0 0 1 -230 -230)">Quản lý lớp học</text></g></g><g><path fill="none" stroke="#ff0000" paint-order="fill stroke markers" d=" M 809 117 L 190 264" stroke-miterlimit="10" stroke-dasharray=""/></g><g><path fill="none" stroke="#ff0000" paint-order="fill stroke markers" d=" M 827 147 L 749 265" stroke-miterlimit="10" stroke-dasharray=""/></g><g><path fill="none" stroke="#ff0000" paint-order="fill stroke markers" d=" M 886 147 L 978 265" stroke-miterlimit="10" stroke-dasharray=""/></g><g><path fill="none" stroke="#ff0000" paint-order="fill stroke markers" d=" M 900 127 L 1204 265" stroke-miterlimit="10" stroke-dasharray=""/></g><g><path fill="none" stroke="#ff0000" paint-order="fill stroke markers" d=" M 900 119 L 1449 278" stroke-miterlimit="10" stroke-dasharray=""/></g><g><path fill="none" stroke="#0008ff" paint-order="fill stroke markers" d=" M 251 595 L 440 492" stroke-miterlimit="10" stroke-dasharray=""/></g><g><path fill="none" stroke="#0008ff" paint-order="fill stroke markers" d=" M 251 609 L 409 572" stroke-miterlimit="10" stroke-dasharray=""/></g><g><path fill="none" stroke="#0008ff" paint-order="fill stroke markers" d=" M 251 622 L 441 640" stroke-miterlimit="10" stroke-dasharray=""/></g><g><path fill="none" stroke="#0008ff" paint-order="fill stroke markers" d=" M 250 577 L 479 340" stroke-miterlimit="10" stroke-dasharray=""/></g><g><path fill="none" stroke="#0008ff" paint-order="fill stroke markers" d=" M 251 637 L 413 713" stroke-miterlimit="10" stroke-dasharray=""/></g><g><path fill="none" stroke="#008400" paint-order="fill stroke markers" d=" M 897 495 L 767 601" stroke-miterlimit="10" stroke-dasharray=""/></g><g><path fill="none" stroke="#008400" paint-order="fill stroke markers" d=" M 897 441 L 576 319" stroke-miterlimit="10" stroke-dasharray=""/></g><g><path fill="none" stroke="#008400" paint-order="fill stroke markers" d=" M 942 499 L 941 601" stroke-miterlimit="10" stroke-dasharray=""/></g><g><path fill="none" stroke="#008400" paint-order="fill stroke markers" d=" M 987 496 L 1109 601" stroke-miterlimit="10" stroke-dasharray=""/></g><g><path fill="none" stroke="#ff0000" paint-order="fill stroke markers" d=" M 809 132 L 576 266" stroke-miterlimit="10" stroke-dasharray=""/></g></g></svg>